# Blender 3.1.2
# www.blender.org
o Cube
v -0.968133 1.107075 1.059823
v -0.968133 -0.892925 1.059823
v -0.968133 1.107075 -0.940177
v -0.968133 -0.892925 -0.940177
v 1.031867 1.107075 1.059823
v 1.000000 -1.000000 1.000000
v 1.031867 1.107075 -0.940177
v 1.031867 -0.892925 -0.940177
vn -0.0000 1.0000 -0.0000
vn -0.0000 -0.0000 -1.0000
vn 1.000 -0.000 0.000
vn -0.0000 -1.0 -0.0
vn -1.0000 -0.0000 -0.0000
vn 0.000 -0.000 1.000
vn 1.0000 -0.0000 -0.0000
vn -0.000 -1.0000 -0.0000
vn -0.0000 -0.0000 1.0000
vt 0.000 0.000
vt 0.000 1.000
vt 0.000 1.000
vt 1.000 0.000
vt 0.000 0.000
vt 0.000 1.000
vt 0.000 0.000
vt 1.000 0.000
vt 0.000 1.000
vt 1.000 1.000
vt 1.000 1.000
vt 1.000 0.000
vt 1.000 0.000
vt 1.000 1.000
vt 1.000 1.000
vt 1.000 0.000
vt 0.000 0.000
vt 1.000 1.000
vt 1.000 0.000
vt 0.000 0.000
vt 0.000 1.000
vt 1.000 1.000
vt 0.000 1.000
s 0
f 5/12/1 3/6/1 1/1/1
f 3/7/2 8/22/2 4/9/2
f 8/23/3 5/13/3 6/15/3
f 6/17/4 4/10/4 8/21/4
f 1/1/5 4/11/5 2/3/5
f 5/14/6 2/5/6 6/16/6
f 5/12/1 7/18/1 3/6/1
f 3/7/2 7/19/2 8/22/2
f 8/23/7 7/20/7 5/13/7
f 6/17/8 2/4/8 4/10/8
f 1/1/5 3/8/5 4/11/5
f 5/14/9 1/2/9 2/5/9
